<svg width="483" height="706" viewBox="0 0 483 706" fill="none" xmlns="http://www.w3.org/2000/svg">
<path d="M38.5777 700.128C58.9957 699.927 79.6776 699.097 100.53 697.547C217.776 688.961 292.727 651.143 329.663 581.905C361.674 521.94 360.408 447.794 359.316 382.332C358.617 338.632 357.852 297.35 367.499 267.341C399.473 167.252 435.615 144.684 457.157 131.216C469.619 123.391 477.899 118.294 476.938 102.629C476.071 87.3231 419.727 68.2625 299.727 42.6639C247.851 31.6198 207.737 41.9559 175.487 50.3347C159.318 54.5239 145.381 58.1542 133.11 58.1849C99.2582 58.429 89.9975 54.848 69.6773 46.8975C52.7751 40.3465 27.1509 30.3881 -27.6132 17.1343C-75.7338 5.51616 -150.807 3.74666 -223.358 12.4319C-264.688 17.4068 -303.928 25.4052 -339.916 36.2388C-380.189 48.4576 -415.504 63.9418 -444.88 82.3227C-499.268 116.444 -532.516 159.942 -543.742 211.462C-554.796 262.264 -552.763 314.102 -537.927 365.545C-523.094 416.63 -496.378 464.732 -458.331 508.513C-402.98 572.186 -325.9 623.285 -235.385 656.16C-187.116 673.688 -134.957 686.162 -80.3437 693.148C-42.0488 698.234 -2.17034 700.529 38.5777 700.128ZM252.679 39.9917C267.098 39.8498 282.605 41.1303 299.299 44.7272C353.869 56.3719 394.541 66.4503 423.561 75.5692C465.427 88.7709 474.56 97.6375 474.879 102.74C475.737 117.151 468.705 121.519 456.065 129.436C434.255 143.085 397.759 165.924 365.523 266.733C355.79 297.102 356.467 338.563 357.257 382.442C358.346 447.635 359.61 521.513 327.863 581.027C291.278 649.545 216.86 686.999 100.421 695.489C38.1289 700.043 -22.6096 698.67 -80.0932 691.264C-134.528 684.276 -186.507 671.89 -234.686 654.362C-324.842 621.573 -401.651 570.74 -456.819 507.334C-494.685 463.819 -521.309 415.986 -535.96 365.168C-550.793 314.082 -552.733 262.602 -541.765 212.069C-530.713 161.088 -497.729 118.041 -443.876 84.193C-414.679 65.9038 -379.543 50.4214 -339.358 38.2934C-303.46 27.4607 -264.399 19.464 -223.158 14.49C-150.787 5.80656 -75.9826 7.5787 -28.1309 19.1995C26.5443 32.3642 52.0785 42.3234 68.9808 48.8745C89.5698 56.9123 98.9195 60.4925 133.132 60.3349C133.222 60.334 133.222 60.334 133.312 60.3331C145.849 60.2097 159.875 56.5786 176.045 52.3893C197.575 46.8032 222.768 40.286 252.679 39.9917Z" fill="#FFD300" fill-opacity="0.1"/>
<path d="M38.5777 700.128C58.9957 699.927 79.6776 699.097 100.53 697.547C217.776 688.961 292.727 651.143 329.663 581.905C361.674 521.94 360.408 447.794 359.316 382.332C358.617 338.632 357.852 297.35 367.499 267.341C399.473 167.252 435.615 144.684 457.157 131.216C469.619 123.391 477.899 118.294 476.938 102.629C476.071 87.3231 419.727 68.2625 299.727 42.6639C247.851 31.6198 207.737 41.9559 175.487 50.3347C159.318 54.5239 145.381 58.1542 133.11 58.1849C99.2582 58.429 89.9975 54.848 69.6773 46.8975C52.7751 40.3465 27.1509 30.3881 -27.6132 17.1343C-75.7338 5.51616 -150.807 3.74666 -223.358 12.4319C-264.688 17.4068 -303.928 25.4052 -339.916 36.2388C-380.189 48.4576 -415.504 63.9418 -444.88 82.3227C-499.268 116.444 -532.516 159.942 -543.742 211.462C-554.796 262.264 -552.763 314.102 -537.927 365.545C-523.094 416.63 -496.378 464.732 -458.331 508.513C-402.98 572.186 -325.9 623.285 -235.385 656.16C-187.116 673.688 -134.957 686.162 -80.3437 693.148C-42.0488 698.234 -2.17034 700.529 38.5777 700.128ZM252.679 39.9917C267.098 39.8498 282.605 41.1303 299.299 44.7272C353.869 56.3719 394.541 66.4503 423.561 75.5692C465.427 88.7709 474.56 97.6375 474.879 102.74C475.737 117.151 468.705 121.519 456.065 129.436C434.255 143.085 397.759 165.924 365.523 266.733C355.79 297.102 356.467 338.563 357.257 382.442C358.346 447.635 359.61 521.513 327.863 581.027C291.278 649.545 216.86 686.999 100.421 695.489C38.1289 700.043 -22.6096 698.67 -80.0932 691.264C-134.528 684.276 -186.507 671.89 -234.686 654.362C-324.842 621.573 -401.651 570.74 -456.819 507.334C-494.685 463.819 -521.309 415.986 -535.96 365.168C-550.793 314.082 -552.733 262.602 -541.765 212.069C-530.713 161.088 -497.729 118.041 -443.876 84.193C-414.679 65.9038 -379.543 50.4214 -339.358 38.2934C-303.46 27.4607 -264.399 19.464 -223.158 14.49C-150.787 5.80656 -75.9826 7.5787 -28.1309 19.1995C26.5443 32.3642 52.0785 42.3234 68.9808 48.8745C89.5698 56.9123 98.9195 60.4925 133.132 60.3349C133.222 60.334 133.222 60.334 133.312 60.3331C145.849 60.2097 159.875 56.5786 176.045 52.3893C197.575 46.8032 222.768 40.286 252.679 39.9917Z" fill="#FFD300" fill-opacity="0.1"/>
<path d="M27.8139 662.08C44.2921 661.918 61.0349 661.305 77.8614 660.155C183.749 653.381 252.391 620.552 287.62 559.838C318.18 507.143 319.32 441.032 320.269 382.627C320.943 341.959 321.551 303.619 332.112 275.571C364.455 185.599 399.079 163.494 419.818 150.303C432.278 142.299 440.555 137.023 439.868 121.803C439.605 113.208 424.098 102.971 393.713 91.5366C366.384 81.1479 328.122 70.2389 282.967 59.7566C235.837 48.6658 199.286 56.9078 169.884 63.4664C155.675 66.6513 143.431 69.3689 132.238 69.5691C97.0431 70.0043 88.2393 67.3148 62.2764 59.3309C44.8487 53.9491 20.8628 46.6617 -23.1248 36.347C-68.1902 25.8629 -138.245 24.224 -205.788 32.1429C-244.436 36.6434 -280.996 43.9885 -314.484 53.9914C-352.08 65.1989 -384.989 79.4943 -412.228 96.5112C-461.455 127.179 -491.703 166.168 -502.354 212.398C-512.913 258.897 -511.639 306.442 -498.546 353.694C-485.456 400.586 -461.465 444.863 -427.034 485.098C-377.469 543.364 -307.954 590.149 -226.241 620.604C-182.642 636.833 -135.507 648.46 -86.0909 655.139C-49.4098 660.153 -11.3222 662.465 27.8139 662.08ZM234.569 56.2916C249.256 56.1471 265.123 57.6031 282.449 61.6428C377.873 83.721 437.391 106.781 437.809 121.913C438.485 135.968 431.009 140.789 418.637 148.702C397.722 162.075 362.743 184.451 330.226 274.962C319.578 303.369 318.972 341.888 318.3 382.737C317.348 440.784 316.293 506.623 285.909 558.96C251.032 619.042 182.924 651.508 77.7529 658.275C21.1854 662.055 -33.824 660.357 -85.7514 653.255C-135.077 646.576 -182.034 634.946 -225.452 618.804C-306.896 588.527 -376.051 541.828 -425.523 483.919C-459.683 443.861 -483.672 399.852 -496.58 353.226C-509.58 306.333 -510.94 259.146 -500.379 212.916C-489.901 167.225 -459.829 128.685 -411.136 98.2915C-375.084 75.8147 -310.259 46.4265 -205.499 34.2002C-138.135 26.2831 -68.4379 27.9254 -23.5534 38.3213C20.4333 48.546 44.3291 55.8353 61.7579 61.2161C87.271 69.0264 96.7935 71.9779 132.347 71.5381C143.63 71.4271 156.052 68.6177 170.352 65.4319C188.581 61.2223 209.762 56.5357 234.569 56.2916Z" fill="#FFD300" fill-opacity="0.1"/>
<path d="M27.8139 662.08C44.2921 661.918 61.0349 661.305 77.8614 660.155C183.749 653.381 252.391 620.552 287.62 559.838C318.18 507.143 319.32 441.032 320.269 382.627C320.943 341.959 321.551 303.619 332.112 275.571C364.455 185.599 399.079 163.494 419.818 150.303C432.278 142.299 440.555 137.023 439.868 121.803C439.605 113.208 424.098 102.971 393.713 91.5366C366.384 81.1479 328.122 70.2389 282.967 59.7566C235.837 48.6658 199.286 56.9078 169.884 63.4664C155.675 66.6513 143.431 69.3689 132.238 69.5691C97.0431 70.0043 88.2393 67.3148 62.2764 59.3309C44.8487 53.9491 20.8628 46.6617 -23.1248 36.347C-68.1902 25.8629 -138.245 24.224 -205.788 32.1429C-244.436 36.6434 -280.996 43.9885 -314.484 53.9914C-352.08 65.1989 -384.989 79.4943 -412.228 96.5112C-461.455 127.179 -491.703 166.168 -502.354 212.398C-512.913 258.897 -511.639 306.442 -498.546 353.694C-485.456 400.586 -461.465 444.863 -427.034 485.098C-377.469 543.364 -307.954 590.149 -226.241 620.604C-182.642 636.833 -135.507 648.46 -86.0909 655.139C-49.4098 660.153 -11.3222 662.465 27.8139 662.08ZM234.569 56.2916C249.256 56.1471 265.123 57.6031 282.449 61.6428C377.873 83.721 437.391 106.781 437.809 121.913C438.485 135.968 431.009 140.789 418.637 148.702C397.722 162.075 362.743 184.451 330.226 274.962C319.578 303.369 318.972 341.888 318.3 382.737C317.348 440.784 316.293 506.623 285.909 558.96C251.032 619.042 182.924 651.508 77.7529 658.275C21.1854 662.055 -33.824 660.357 -85.7514 653.255C-135.077 646.576 -182.034 634.946 -225.452 618.804C-306.896 588.527 -376.051 541.828 -425.523 483.919C-459.683 443.861 -483.672 399.852 -496.58 353.226C-509.58 306.333 -510.94 259.146 -500.379 212.916C-489.901 167.225 -459.829 128.685 -411.136 98.2915C-375.084 75.8147 -310.259 46.4265 -205.499 34.2002C-138.135 26.2831 -68.4379 27.9254 -23.5534 38.3213C20.4333 48.546 44.3291 55.8353 61.7579 61.2161C87.271 69.0264 96.7935 71.9779 132.347 71.5381C143.63 71.4271 156.052 68.6177 170.352 65.4319C188.581 61.2223 209.762 56.5357 234.569 56.2916Z" fill="#FFD300" fill-opacity="0.1"/>
<path d="M16.5131 624.125C29.2304 624 42.1242 623.605 55.1924 622.85C149.813 617.889 212.054 589.959 245.486 537.682C274.592 492.076 277.962 434.005 280.861 382.746C283.001 345.287 285.071 309.978 296.548 283.892C329.17 204.127 362.276 182.485 382.121 169.482C394.757 161.208 403.034 155.842 402.619 140.978C402.688 120.736 331.844 93.4884 266.028 76.7611C223.464 65.5363 190.295 71.5949 163.654 76.5143C151.584 78.6931 141.124 80.6771 131.363 80.7732C91.3344 81.435 83.9731 79.7164 43.1238 69.8188C27.7716 66.1187 8.64894 61.4696 -18.7283 55.3807C-46.6443 49.117 -85.1842 46.361 -127.18 47.4013C-174.457 48.6725 -222.135 54.7839 -264.846 65.0566C-315.417 77.4657 -357.609 94.9877 -390.079 117.43C-427.977 143.507 -451.841 175.807 -461.057 213.246C-471.21 255.441 -470.605 298.694 -459.255 341.664C-447.997 384.454 -426.642 424.817 -395.918 461.594C-351.871 514.273 -290.1 556.924 -217.099 584.866C-146.973 611.762 -68.4757 624.873 16.5131 624.125ZM215.649 72.2405C230.694 72.0925 247.279 73.7214 265.599 78.5564C343.984 98.4742 400.758 124.785 400.738 140.997C401.143 154.786 393.578 159.696 381.12 167.88C361.097 180.974 327.725 202.798 294.928 283.102C283.275 309.459 281.206 344.947 279.068 382.585C276.167 433.576 272.794 491.378 243.952 536.623C210.875 588.448 149.079 616.015 55.0849 620.97C-44.6336 626.698 -136.025 613.983 -216.488 583.159C-289.13 555.302 -350.72 512.917 -394.497 460.415C-425.039 423.816 -446.303 383.72 -457.468 341.198C-468.726 298.497 -469.327 255.602 -459.261 213.676C-450.131 176.686 -426.532 144.747 -388.989 118.942C-356.696 96.6808 -314.773 79.1615 -264.468 67.023C-221.847 56.7521 -174.348 50.6415 -127.161 49.3712C-85.2557 48.2428 -46.8939 51.0895 -19.1578 57.265C8.13048 63.3558 27.2531 68.0039 42.6053 71.704C83.6336 81.6008 90.9948 83.4095 131.293 82.744C141.233 82.5562 151.693 80.6622 163.941 78.3926C178.96 75.5577 196.036 72.4335 215.649 72.2405Z" fill="#FFD300" fill-opacity="0.1"/>
<path d="M16.5131 624.125C29.2304 624 42.1242 623.605 55.1924 622.85C149.813 617.889 212.054 589.959 245.486 537.682C274.592 492.076 277.962 434.005 280.861 382.746C283.001 345.287 285.071 309.978 296.548 283.892C329.17 204.127 362.276 182.485 382.121 169.482C394.757 161.208 403.034 155.842 402.619 140.978C402.688 120.736 331.844 93.4884 266.028 76.7611C223.464 65.5363 190.295 71.5949 163.654 76.5143C151.584 78.6931 141.124 80.6771 131.363 80.7732C91.3344 81.435 83.9731 79.7164 43.1238 69.8188C27.7716 66.1187 8.64894 61.4696 -18.7283 55.3807C-46.6443 49.117 -85.1842 46.361 -127.18 47.4013C-174.457 48.6725 -222.135 54.7839 -264.846 65.0566C-315.417 77.4657 -357.609 94.9877 -390.079 117.43C-427.977 143.507 -451.841 175.807 -461.057 213.246C-471.21 255.441 -470.605 298.694 -459.255 341.664C-447.997 384.454 -426.642 424.817 -395.918 461.594C-351.871 514.273 -290.1 556.924 -217.099 584.866C-146.973 611.762 -68.4757 624.873 16.5131 624.125ZM215.649 72.2405C230.694 72.0925 247.279 73.7214 265.599 78.5564C343.984 98.4742 400.758 124.785 400.738 140.997C401.143 154.786 393.578 159.696 381.12 167.88C361.097 180.974 327.725 202.798 294.928 283.102C283.275 309.459 281.206 344.947 279.068 382.585C276.167 433.576 272.794 491.378 243.952 536.623C210.875 588.448 149.079 616.015 55.0849 620.97C-44.6336 626.698 -136.025 613.983 -216.488 583.159C-289.13 555.302 -350.72 512.917 -394.497 460.415C-425.039 423.816 -446.303 383.72 -457.468 341.198C-468.726 298.497 -469.327 255.602 -459.261 213.676C-450.131 176.686 -426.532 144.747 -388.989 118.942C-356.696 96.6808 -314.773 79.1615 -264.468 67.023C-221.847 56.7521 -174.348 50.6415 -127.161 49.3712C-85.2557 48.2428 -46.8939 51.0895 -19.1578 57.265C8.13048 63.3558 27.2531 68.0039 42.6053 71.704C83.6336 81.6008 90.9948 83.4095 131.293 82.744C141.233 82.5562 151.693 80.6622 163.941 78.3926C178.96 75.5577 196.036 72.4335 215.649 72.2405Z" fill="#FFD300" fill-opacity="0.1"/>
<path d="M5.84008 586.166C14.6167 586.079 23.4805 585.813 32.4334 585.457C115.876 582.217 171.807 559.186 203.347 515.079C230.911 476.474 236.172 428.595 241.269 382.24C244.964 348.169 248.499 316.07 261.161 292.032C293.794 222.478 324.226 202.206 344.334 188.752C357.593 179.934 365.601 174.571 365.459 160.152C365.994 141.697 315.014 112.553 249.268 93.7638C210.909 82.1396 180.767 86.1984 156.616 89.4812C147.404 90.7359 138.638 91.8972 130.489 92.0663L126.37 92.1969C79.2713 93.3763 75.4195 93.4142 -14.2401 74.5924C-39.3705 69.2864 -75.4908 66.6867 -113.099 67.5937C-156.437 68.6472 -199.914 73.9112 -238.876 82.893C-285.255 93.5598 -323.883 109.077 -353.782 128.896C-388.664 151.988 -410.862 180.688 -419.759 214.093C-429.507 251.986 -429.572 290.857 -419.965 329.723C-410.449 368.321 -391.819 404.859 -364.711 438.179C-326.361 485.36 -272.155 523.788 -207.955 549.219C-144.206 574.476 -72.3421 586.935 5.84008 586.166ZM195.382 87.8457C211.144 87.6906 228.805 89.4869 248.747 95.471C312.697 113.74 364.302 142.698 363.757 160.169C363.98 173.691 356.239 178.872 343.426 187.418C324.385 200.144 292.528 221.325 259.631 291.33C246.882 315.549 243.349 347.826 239.565 382.077C234.466 428.164 229.293 475.863 201.994 514.107C170.807 557.763 115.322 580.521 32.4166 583.755C-55.9424 587.849 -136.58 575.744 -207.344 547.601C-271.184 522.256 -325.21 484.006 -363.378 437.091C-390.305 403.948 -408.754 367.678 -418.266 329.348C-427.78 290.84 -427.714 252.147 -418.053 214.524C-409.243 181.478 -387.309 153.139 -352.783 130.319C-323.062 110.591 -284.611 95.2555 -238.411 84.5905C-199.539 75.6096 -156.152 70.3464 -112.992 69.2948C-75.4741 68.3876 -39.6227 70.991 -14.5813 76.2979C75.2581 95.2069 79.1089 95.169 126.388 93.9878L130.506 93.8573C138.655 93.6881 147.51 92.5259 156.813 91.2703C168.262 89.7246 181.052 87.9867 195.382 87.8457Z" fill="#FFD300" fill-opacity="0.1"/>
<path d="M5.84008 586.166C14.6167 586.079 23.4805 585.813 32.4334 585.457C115.876 582.217 171.807 559.186 203.347 515.079C230.911 476.474 236.172 428.595 241.269 382.24C244.964 348.169 248.499 316.07 261.161 292.032C293.794 222.478 324.226 202.206 344.334 188.752C357.593 179.934 365.601 174.571 365.459 160.152C365.994 141.697 315.014 112.553 249.268 93.7638C210.909 82.1396 180.767 86.1984 156.616 89.4812C147.404 90.7359 138.638 91.8972 130.489 92.0663L126.37 92.1969C79.2713 93.3763 75.4195 93.4142 -14.2401 74.5924C-39.3705 69.2864 -75.4908 66.6867 -113.099 67.5937C-156.437 68.6472 -199.914 73.9112 -238.876 82.893C-285.255 93.5598 -323.883 109.077 -353.782 128.896C-388.664 151.988 -410.862 180.688 -419.759 214.093C-429.507 251.986 -429.572 290.857 -419.965 329.723C-410.449 368.321 -391.819 404.859 -364.711 438.179C-326.361 485.36 -272.155 523.788 -207.955 549.219C-144.206 574.476 -72.3421 586.935 5.84008 586.166ZM195.382 87.8457C211.144 87.6906 228.805 89.4869 248.747 95.471C312.697 113.74 364.302 142.698 363.757 160.169C363.98 173.691 356.239 178.872 343.426 187.418C324.385 200.144 292.528 221.325 259.631 291.33C246.882 315.549 243.349 347.826 239.565 382.077C234.466 428.164 229.293 475.863 201.994 514.107C170.807 557.763 115.322 580.521 32.4166 583.755C-55.9424 587.849 -136.58 575.744 -207.344 547.601C-271.184 522.256 -325.21 484.006 -363.378 437.091C-390.305 403.948 -408.754 367.678 -418.266 329.348C-427.78 290.84 -427.714 252.147 -418.053 214.524C-409.243 181.478 -387.309 153.139 -352.783 130.319C-323.062 110.591 -284.611 95.2555 -238.411 84.5905C-199.539 75.6096 -156.152 70.3464 -112.992 69.2948C-75.4741 68.3876 -39.6227 70.991 -14.5813 76.2979C75.2581 95.2069 79.1089 95.169 126.388 93.9878L130.506 93.8573C138.655 93.6881 147.51 92.5259 156.813 91.2703C168.262 89.7246 181.052 87.9867 195.382 87.8457Z" fill="#FFD300" fill-opacity="0.1"/>
<path d="M-4.65227 548.384C0.183496 548.336 5.01841 548.199 9.8543 548.062C172.202 544.763 187.647 457.823 201.403 381.2C206.835 350.784 212.016 321.982 225.774 300.262C258.239 240.92 287.156 221.379 306.284 208.383C319.985 199.113 328.259 193.478 328.3 179.326C328.838 170.365 319.222 157.921 301.99 145.193C283.675 131.67 259.015 119.463 232.419 110.857C197.187 98.3964 170.785 100.447 147.427 102.289C141.253 102.798 135.346 103.215 129.704 103.36C121.109 103.623 113.679 104.054 107.055 104.388C76.6185 106.032 58.2674 107.019 -9.6647 93.6253C-53.0077 85.0954 -135.064 83.5736 -212.819 100.46C-254.913 109.652 -290.07 122.985 -317.397 140.181C-349.264 160.289 -369.795 185.389 -378.373 214.851C-387.715 248.44 -388.449 283.108 -380.674 317.693C-372.901 352.189 -357.086 384.814 -333.595 414.676C-300.852 456.36 -254.301 490.473 -198.904 513.394C-141.436 537.37 -76.2087 548.998 -4.65227 548.384ZM172.866 102.577C189.882 102.409 209.068 104.281 231.897 112.386C289.042 130.99 327.687 162.585 326.687 179.342C326.639 192.688 318.632 198.14 305.286 207.139C285.979 220.227 256.886 239.948 224.244 299.561C210.309 321.551 205.219 350.442 199.699 381.037C192.737 419.887 185.608 459.993 159.943 491.324C130.738 526.989 81.6549 545.027 9.6593 546.541C-67.3412 549.001 -137.315 537.509 -198.379 512.135C-253.506 489.302 -299.877 455.275 -332.438 413.858C-355.749 384.173 -371.473 351.726 -379.243 317.5C-387.016 283.094 -386.189 248.783 -376.934 215.464C-365.93 177.739 -328.45 127.392 -212.622 102.25C-135.136 85.3654 -53.3481 86.8898 -10.184 95.4215C57.927 108.813 76.3682 107.826 106.893 106.181C113.428 105.849 120.948 105.416 129.453 105.153C135.184 105.008 141.091 104.502 147.266 104.083C155.498 103.285 163.911 102.665 172.866 102.577Z" fill="#FFD300" fill-opacity="0.1"/>
<path d="M-4.65227 548.384C0.183496 548.336 5.01841 548.199 9.8543 548.062C172.202 544.763 187.647 457.823 201.403 381.2C206.835 350.784 212.016 321.982 225.774 300.262C258.239 240.92 287.156 221.379 306.284 208.383C319.985 199.113 328.259 193.478 328.3 179.326C328.838 170.365 319.222 157.921 301.99 145.193C283.675 131.67 259.015 119.463 232.419 110.857C197.187 98.3964 170.785 100.447 147.427 102.289C141.253 102.798 135.346 103.215 129.704 103.36C121.109 103.623 113.679 104.054 107.055 104.388C76.6185 106.032 58.2674 107.019 -9.6647 93.6253C-53.0077 85.0954 -135.064 83.5736 -212.819 100.46C-254.913 109.652 -290.07 122.985 -317.397 140.181C-349.264 160.289 -369.795 185.389 -378.373 214.851C-387.715 248.44 -388.449 283.108 -380.674 317.693C-372.901 352.189 -357.086 384.814 -333.595 414.676C-300.852 456.36 -254.301 490.473 -198.904 513.394C-141.436 537.37 -76.2087 548.998 -4.65227 548.384ZM172.866 102.577C189.882 102.409 209.068 104.281 231.897 112.386C289.042 130.99 327.687 162.585 326.687 179.342C326.639 192.688 318.632 198.14 305.286 207.139C285.979 220.227 256.886 239.948 224.244 299.561C210.309 321.551 205.219 350.442 199.699 381.037C192.737 419.887 185.608 459.993 159.943 491.324C130.738 526.989 81.6549 545.027 9.6593 546.541C-67.3412 549.001 -137.315 537.509 -198.379 512.135C-253.506 489.302 -299.877 455.275 -332.438 413.858C-355.749 384.173 -371.473 351.726 -379.243 317.5C-387.016 283.094 -386.189 248.783 -376.934 215.464C-365.93 177.739 -328.45 127.392 -212.622 102.25C-135.136 85.3654 -53.3481 86.8898 -10.184 95.4215C57.927 108.813 76.3682 107.826 106.893 106.181C113.428 105.849 120.948 105.416 129.453 105.153C135.184 105.008 141.091 104.502 147.266 104.083C155.498 103.285 163.911 102.665 172.866 102.577Z" fill="#FFD300" fill-opacity="0.1"/>
<path d="M-7.62101 510.616C51.2161 510.037 92.7306 496.463 119.239 468.975C143.356 444.018 152.347 411.149 161.081 379.357C168.343 352.865 175.173 327.898 190.208 308.493C222.058 259.458 249.46 240.737 267.519 228.379C281.932 218.474 290.651 212.567 291.05 198.502C292.745 179.587 260.791 145.329 215.479 127.862C180.58 112.801 155.601 113.673 131.426 114.538L128.651 114.656C117.012 115.128 107.259 116.119 97.8654 117.198C72.6344 119.864 48.7465 122.427 -5.26547 112.838C-44.6537 105.791 -118.199 104.456 -186.85 118.207C-244.683 129.882 -317.688 156.216 -337.075 215.698C-354.948 274.359 -342.406 338.365 -302.565 391.442C-275.43 427.538 -236.444 457.428 -189.849 477.838C-138.846 500.175 -80.1633 511.151 -15.3245 510.603C-14.5186 510.595 -13.8016 510.588 -12.9956 510.58C-11.1138 510.651 -9.32293 510.633 -7.62101 510.616ZM146.126 115.737C165.918 115.542 187.343 117.391 215.045 129.299C263.415 147.99 291.068 182.201 289.707 198.515C289.301 211.864 280.849 217.679 266.793 227.311C248.555 239.761 221.064 258.571 189.126 307.788C174.004 327.373 167.086 352.518 159.824 379.101C151.179 410.712 142.185 443.402 118.336 468.088C91.2933 496.03 48.525 509.527 -12.739 509.324C-13.5449 509.332 -14.2619 509.339 -15.0679 509.347C-79.7267 509.983 -138.232 499.005 -189.054 476.755C-235.469 456.433 -274.185 426.72 -301.228 390.802C-320.922 364.575 -333.921 335.952 -339.95 305.828C-345.89 275.614 -344.395 245.506 -335.546 216.399C-316.421 157.546 -243.861 131.486 -186.475 119.905C-118.004 106.155 -44.637 107.493 -5.42773 114.542C48.7641 124.218 72.742 121.654 98.152 118.986C107.547 117.997 117.299 116.916 128.847 116.445L131.622 116.148C136.366 115.923 141.201 115.785 146.126 115.737Z" fill="#FFD300" fill-opacity="0.1"/>
<path d="M-7.62101 510.616C51.2161 510.037 92.7306 496.463 119.239 468.975C143.356 444.018 152.347 411.149 161.081 379.357C168.343 352.865 175.173 327.898 190.208 308.493C222.058 259.458 249.46 240.737 267.519 228.379C281.932 218.474 290.651 212.567 291.05 198.502C292.745 179.587 260.791 145.329 215.479 127.862C180.58 112.801 155.601 113.673 131.426 114.538L128.651 114.656C117.012 115.128 107.259 116.119 97.8654 117.198C72.6344 119.864 48.7465 122.427 -5.26547 112.838C-44.6537 105.791 -118.199 104.456 -186.85 118.207C-244.683 129.882 -317.688 156.216 -337.075 215.698C-354.948 274.359 -342.406 338.365 -302.565 391.442C-275.43 427.538 -236.444 457.428 -189.849 477.838C-138.846 500.175 -80.1633 511.151 -15.3245 510.603C-14.5186 510.595 -13.8016 510.588 -12.9956 510.58C-11.1138 510.651 -9.32293 510.633 -7.62101 510.616ZM146.126 115.737C165.918 115.542 187.343 117.391 215.045 129.299C263.415 147.99 291.068 182.201 289.707 198.515C289.301 211.864 280.849 217.679 266.793 227.311C248.555 239.761 221.064 258.571 189.126 307.788C174.004 327.373 167.086 352.518 159.824 379.101C151.179 410.712 142.185 443.402 118.336 468.088C91.2933 496.03 48.525 509.527 -12.739 509.324C-13.5449 509.332 -14.2619 509.339 -15.0679 509.347C-79.7267 509.983 -138.232 499.005 -189.054 476.755C-235.469 456.433 -274.185 426.72 -301.228 390.802C-320.922 364.575 -333.921 335.952 -339.95 305.828C-345.89 275.614 -344.395 245.506 -335.546 216.399C-316.421 157.546 -243.861 131.486 -186.475 119.905C-118.004 106.155 -44.637 107.493 -5.42773 114.542C48.7641 124.218 72.742 121.654 98.152 118.986C107.547 117.997 117.299 116.916 128.847 116.445L131.622 116.148C136.366 115.923 141.201 115.785 146.126 115.737Z" fill="#FFD300" fill-opacity="0.1"/>
<path d="M-19.8089 473.478C23.177 473.055 55.1503 463.784 77.4486 445.203C99.6578 426.714 110.333 401.173 120.658 376.441C129.497 355.306 138.596 333.452 154.821 316.723C185.343 278.179 211.053 260.64 227.957 249.099C243.705 238.376 253.224 231.834 253.98 217.674C256.042 199.741 235.614 162.505 198.809 144.954C172.874 130.61 151.681 124.997 127.957 126.036C115.335 126.698 104.515 128.506 92.9811 130.5C68.6602 134.591 43.4451 138.869 -0.598189 132.048C-36.2106 126.487 -101.514 125.339 -160.611 136.041C-211.929 145.323 -276.921 166.831 -295.418 216.721C-312.657 266.957 -303.872 322.311 -271.265 368.474C-249.737 399.073 -218.317 424.647 -180.434 442.546C-138.503 462.286 -89.7667 472.733 -35.3948 473.362C-30.1093 473.489 -24.9137 473.528 -19.8089 473.478ZM132.178 127.248C153.94 127.034 173.97 132.839 198.194 146.124C234.549 163.5 254.702 200.024 252.636 217.599C251.963 231.129 243.155 237.127 227.141 248.032C210.149 259.664 184.347 277.203 153.739 315.838C137.335 332.749 128.147 354.692 119.311 376.006C109.073 400.558 98.4858 426.008 76.543 444.227C51.8453 464.712 15.2144 473.85 -35.4979 471.93C-89.6907 471.299 -138.337 460.94 -179.999 441.198C-217.702 423.388 -248.941 397.99 -270.288 367.569C-302.625 321.672 -311.315 266.855 -294.251 216.978C-275.927 167.717 -211.381 146.393 -160.42 137.203C-101.413 126.502 -36.2882 127.652 -0.765745 133.214C43.5464 140.122 68.8515 135.843 93.2616 131.662C104.706 129.758 115.615 127.859 128.059 127.289C129.403 127.366 130.835 127.262 132.178 127.248Z" fill="#FFD300" fill-opacity="0.1"/>
<path d="M-19.8089 473.478C23.177 473.055 55.1503 463.784 77.4486 445.203C99.6578 426.714 110.333 401.173 120.658 376.441C129.497 355.306 138.596 333.452 154.821 316.723C185.343 278.179 211.053 260.64 227.957 249.099C243.705 238.376 253.224 231.834 253.98 217.674C256.042 199.741 235.614 162.505 198.809 144.954C172.874 130.61 151.681 124.997 127.957 126.036C115.335 126.698 104.515 128.506 92.9811 130.5C68.6602 134.591 43.4451 138.869 -0.598189 132.048C-36.2106 126.487 -101.514 125.339 -160.611 136.041C-211.929 145.323 -276.921 166.831 -295.418 216.721C-312.657 266.957 -303.872 322.311 -271.265 368.474C-249.737 399.073 -218.317 424.647 -180.434 442.546C-138.503 462.286 -89.7667 472.733 -35.3948 473.362C-30.1093 473.489 -24.9137 473.528 -19.8089 473.478ZM132.178 127.248C153.94 127.034 173.97 132.839 198.194 146.124C234.549 163.5 254.702 200.024 252.636 217.599C251.963 231.129 243.155 237.127 227.141 248.032C210.149 259.664 184.347 277.203 153.739 315.838C137.335 332.749 128.147 354.692 119.311 376.006C109.073 400.558 98.4858 426.008 76.543 444.227C51.8453 464.712 15.2144 473.85 -35.4979 471.93C-89.6907 471.299 -138.337 460.94 -179.999 441.198C-217.702 423.388 -248.941 397.99 -270.288 367.569C-302.625 321.672 -311.315 266.855 -294.251 216.978C-275.927 167.717 -211.381 146.393 -160.42 137.203C-101.413 126.502 -36.2882 127.652 -0.765745 133.214C43.5464 140.122 68.8515 135.843 93.2616 131.662C104.706 129.758 115.615 127.859 128.059 127.289C129.403 127.366 130.835 127.262 132.178 127.248Z" fill="#FFD300" fill-opacity="0.1"/>
<path d="M-31.4528 437.049C37.8638 436.367 58.5132 404.997 80.2206 372.002C90.8976 355.686 102.018 338.917 119.347 325.043C147.285 297.183 169.797 282.183 186.259 271.184C205.211 258.548 215.712 251.638 216.821 236.938C218.247 227.161 215.777 212.677 210.448 199.115C203.929 182.789 193.857 169.633 182.05 162.046C163.187 147.364 147.045 136.238 127.172 137.329C114.552 138.169 102.399 140.976 89.5315 143.969C66.2978 149.393 39.9372 155.563 3.97737 151.08C-20.9529 147.922 -78.1244 144.902 -134.553 153.608C-163.887 158.106 -188.627 165.157 -208.059 174.572C-230.968 185.635 -246.499 200.119 -254.122 217.389C-270.905 259.382 -265.968 305.996 -240.591 345.513C-224.581 370.523 -200.637 391.783 -171.468 407.079C-139.238 423.959 -101.077 433.704 -58.1546 435.88C-48.5624 436.771 -39.6024 437.13 -31.4528 437.049ZM129.333 138.472C147.871 138.29 163.293 149.065 181.254 163.039C208.293 180.328 217.911 220.268 215.566 236.771C214.45 250.844 204.128 257.663 185.531 270.116C169.071 281.116 146.468 296.116 118.531 324.066C101.113 338.03 89.9947 354.889 79.2286 371.295C66.9626 389.956 55.403 407.534 35.461 419.732C12.9362 433.478 -16.7523 438.249 -58.0769 434.625C-100.82 432.448 -138.801 422.791 -170.941 406C-199.931 390.791 -223.695 369.618 -239.613 344.787C-264.718 305.625 -269.651 259.369 -253.042 217.827C-245.597 200.826 -230.242 186.613 -207.601 175.643C-188.257 166.317 -163.696 159.268 -134.453 154.771C-78.2019 146.067 -21.1204 149.088 3.72084 152.247C39.8587 156.728 66.3992 150.556 89.722 145.131C102.589 142.139 114.653 139.333 127.184 138.493C127.901 138.576 128.616 138.479 129.333 138.472Z" fill="#FFD300" fill-opacity="0.1"/>
<path d="M-31.4528 437.049C37.8638 436.367 58.5132 404.997 80.2206 372.002C90.8976 355.686 102.018 338.917 119.347 325.043C147.285 297.183 169.797 282.183 186.259 271.184C205.211 258.548 215.712 251.638 216.821 236.938C218.247 227.161 215.777 212.677 210.448 199.115C203.929 182.789 193.857 169.633 182.05 162.046C163.187 147.364 147.045 136.238 127.172 137.329C114.552 138.169 102.399 140.976 89.5315 143.969C66.2978 149.393 39.9372 155.563 3.97737 151.08C-20.9529 147.922 -78.1244 144.902 -134.553 153.608C-163.887 158.106 -188.627 165.157 -208.059 174.572C-230.968 185.635 -246.499 200.119 -254.122 217.389C-270.905 259.382 -265.968 305.996 -240.591 345.513C-224.581 370.523 -200.637 391.783 -171.468 407.079C-139.238 423.959 -101.077 433.704 -58.1546 435.88C-48.5624 436.771 -39.6024 437.13 -31.4528 437.049ZM129.333 138.472C147.871 138.29 163.293 149.065 181.254 163.039C208.293 180.328 217.911 220.268 215.566 236.771C214.45 250.844 204.128 257.663 185.531 270.116C169.071 281.116 146.468 296.116 118.531 324.066C101.113 338.03 89.9947 354.889 79.2286 371.295C66.9626 389.956 55.403 407.534 35.461 419.732C12.9362 433.478 -16.7523 438.249 -58.0769 434.625C-100.82 432.448 -138.801 422.791 -170.941 406C-199.931 390.791 -223.695 369.618 -239.613 344.787C-264.718 305.625 -269.651 259.369 -253.042 217.827C-245.597 200.826 -230.242 186.613 -207.601 175.643C-188.257 166.317 -163.696 159.268 -134.453 154.771C-78.2019 146.067 -21.1204 149.088 3.72084 152.247C39.8587 156.728 66.3992 150.556 89.722 145.131C102.589 142.139 114.653 139.333 127.184 138.493C127.901 138.576 128.616 138.479 129.333 138.472Z" fill="#FFD300" fill-opacity="0.1"/>
<path d="M-41.8297 401.953C0.0822613 401.54 19.2634 384.783 42.2617 364.584C54.2499 354.076 66.6816 343.205 83.8689 333.095C106.097 316.486 124.346 305.29 138.946 296.19C164.05 280.627 177.849 272.162 179.66 256.023C182.709 238.08 181.664 195.637 165.29 179.138C164.292 177.805 163.384 176.56 162.386 175.227C152.31 161.622 141.872 147.484 126.298 148.622C114.127 149.638 100.643 153.622 86.4432 157.882C63.3135 164.737 37.1487 172.608 8.46465 170.203C-22.6399 167.553 -179.298 157.451 -212.646 218.145C-229.063 251.805 -228.15 290.039 -210.092 323C-199.329 342.688 -183.224 359.189 -162.409 371.971C-139.702 385.899 -112.207 394.853 -80.7356 398.394C-65.931 401.026 -53.0242 402.063 -41.8297 401.953ZM127.742 149.683C141.981 149.543 151.875 162.97 161.498 175.951C162.496 177.286 163.404 178.62 164.402 179.864L164.492 179.952C180.684 196.184 181.635 238.18 178.585 255.944C176.858 271.545 163.148 280.009 138.401 295.389C123.801 304.489 105.551 315.685 83.323 332.294C66.0477 342.405 53.615 353.276 41.5387 363.874C12.5898 389.237 -10.3203 409.256 -80.6544 397.498C-111.948 393.955 -139.262 385.089 -161.88 371.159C-182.605 358.466 -198.529 342.143 -209.2 322.634C-227.076 289.939 -227.985 252.152 -211.743 218.854C-198.458 194.63 -163.681 179.062 -108.394 172.516C-59.7276 166.753 -10.5267 169.852 8.38696 171.457C37.3391 173.77 63.5949 165.988 86.8136 159.042C101.012 154.782 114.497 150.798 126.488 149.785C126.757 149.693 127.294 149.688 127.742 149.683Z" fill="#FFD300" fill-opacity="0.1"/>
<path d="M-41.8297 401.953C0.0822613 401.54 19.2634 384.783 42.2617 364.584C54.2499 354.076 66.6816 343.205 83.8689 333.095C106.097 316.486 124.346 305.29 138.946 296.19C164.05 280.627 177.849 272.162 179.66 256.023C182.709 238.08 181.664 195.637 165.29 179.138C164.292 177.805 163.384 176.56 162.386 175.227C152.31 161.622 141.872 147.484 126.298 148.622C114.127 149.638 100.643 153.622 86.4432 157.882C63.3135 164.737 37.1487 172.608 8.46465 170.203C-22.6399 167.553 -179.298 157.451 -212.646 218.145C-229.063 251.805 -228.15 290.039 -210.092 323C-199.329 342.688 -183.224 359.189 -162.409 371.971C-139.702 385.899 -112.207 394.853 -80.7356 398.394C-65.931 401.026 -53.0242 402.063 -41.8297 401.953ZM127.742 149.683C141.981 149.543 151.875 162.97 161.498 175.951C162.496 177.286 163.404 178.62 164.402 179.864L164.492 179.952C180.684 196.184 181.635 238.18 178.585 255.944C176.858 271.545 163.148 280.009 138.401 295.389C123.801 304.489 105.551 315.685 83.323 332.294C66.0477 342.405 53.615 353.276 41.5387 363.874C12.5898 389.237 -10.3203 409.256 -80.6544 397.498C-111.948 393.955 -139.262 385.089 -161.88 371.159C-182.605 358.466 -198.529 342.143 -209.2 322.634C-227.076 289.939 -227.985 252.152 -211.743 218.854C-198.458 194.63 -163.681 179.062 -108.394 172.516C-59.7276 166.753 -10.5267 169.852 8.38696 171.457C37.3391 173.77 63.5949 165.988 86.8136 159.042C101.012 154.782 114.497 150.798 126.488 149.785C126.757 149.693 127.294 149.688 127.742 149.683Z" fill="#FFD300" fill-opacity="0.1"/>
<path d="M-48.4023 371.118C-23.6845 370.875 -3.88187 362.71 23.5034 351.424C31.2642 348.212 39.2921 344.909 48.3923 341.326C54.8982 338.038 60.9589 335.022 66.7533 332.189C116.665 307.426 139.393 296.097 142.502 275.287C145.574 259.851 154.874 212.828 148.532 196.411C145.046 178.801 139.205 158.707 125.425 160.007C113.883 161.195 98.7999 166.628 82.8252 172.427C60.3357 180.62 34.8111 189.827 12.863 189.416C8.6533 189.368 3.72491 189.148 -2.09845 188.937C-25.7519 188.094 -61.5909 186.746 -94.5182 190.025C-133.977 193.995 -159.855 203.744 -171.347 219.083C-187.938 244.235 -191.576 274.991 -181.016 301.488C-169.352 330.84 -141.826 352.064 -103.493 361.181C-81.2105 368.307 -63.8055 371.269 -48.4023 371.118ZM126.509 160.891C138.867 160.769 144.251 179.883 147.55 196.69L147.551 196.779C153.89 212.928 144.589 259.772 141.516 275.207C138.491 295.568 115.853 306.807 66.2983 331.478C60.5938 334.31 54.4432 337.325 48.0272 340.614C39.0152 344.106 30.9873 347.409 23.1384 350.71C-21.1061 368.969 -45.458 379.06 -103.322 360.374C-141.385 351.344 -168.64 330.385 -180.211 301.301C-190.59 275.071 -187.038 244.674 -170.624 219.793C-159.308 204.724 -133.609 195.067 -94.5068 191.189C-61.5794 187.91 -25.8313 189.17 -2.17701 190.101C3.64736 190.313 8.57478 190.534 12.7855 190.581C34.9116 190.991 60.5253 181.693 83.1048 173.5C98.9895 167.7 114.073 162.267 125.437 161.17C125.792 160.898 126.151 160.894 126.509 160.891Z" fill="#FFD300" fill-opacity="0.1"/>
<path d="M-48.4023 371.118C-23.6845 370.875 -3.88187 362.71 23.5034 351.424C31.2642 348.212 39.2921 344.909 48.3923 341.326C54.8982 338.038 60.9589 335.022 66.7533 332.189C116.665 307.426 139.393 296.097 142.502 275.287C145.574 259.851 154.874 212.828 148.532 196.411C145.046 178.801 139.205 158.707 125.425 160.007C113.883 161.195 98.7999 166.628 82.8252 172.427C60.3357 180.62 34.8111 189.827 12.863 189.416C8.6533 189.368 3.72491 189.148 -2.09845 188.937C-25.7519 188.094 -61.5909 186.746 -94.5182 190.025C-133.977 193.995 -159.855 203.744 -171.347 219.083C-187.938 244.235 -191.576 274.991 -181.016 301.488C-169.352 330.84 -141.826 352.064 -103.493 361.181C-81.2105 368.307 -63.8055 371.269 -48.4023 371.118ZM126.509 160.891C138.867 160.769 144.251 179.883 147.55 196.69L147.551 196.779C153.89 212.928 144.589 259.772 141.516 275.207C138.491 295.568 115.853 306.807 66.2983 331.478C60.5938 334.31 54.4432 337.325 48.0272 340.614C39.0152 344.106 30.9873 347.409 23.1384 350.71C-21.1061 368.969 -45.458 379.06 -103.322 360.374C-141.385 351.344 -168.64 330.385 -180.211 301.301C-190.59 275.071 -187.038 244.674 -170.624 219.793C-159.308 204.724 -133.609 195.067 -94.5068 191.189C-61.5794 187.91 -25.8313 189.17 -2.17701 190.101C3.64736 190.313 8.57478 190.534 12.7855 190.581C34.9116 190.991 60.5253 181.693 83.1048 173.5C98.9895 167.7 114.073 162.267 125.437 161.17C125.792 160.898 126.151 160.894 126.509 160.891Z" fill="#FFD300" fill-opacity="0.1"/>
<path d="M-34.1401 355.125C-19.7218 354.983 -4.15532 353.128 13.0054 349.556C73.3921 333.378 100.995 316.894 105.343 294.551C107.66 284.317 114.542 264.546 120.551 247.201C125.342 233.45 129.871 220.419 131.595 213.684C133.689 207.931 134.953 199.948 134.968 192.334C134.976 184.005 133.478 177.482 130.759 174.105C129.126 171.972 126.967 171.097 124.552 171.39C113.64 172.84 96.0678 180.268 77.5174 188.242C55.4872 197.684 32.6548 207.402 17.352 208.718C9.02953 209.427 -4.2319 208.84 -19.554 208.096C-57.5464 206.41 -109.607 203.966 -129.96 220.019C-148.248 236.5 -158.138 259.884 -155.959 281.09C-154.082 298.894 -143.816 313.661 -126.341 323.788C-106.401 338.729 -87.5939 347.679 -67.399 352.049C-57.0774 354.186 -46.0505 355.242 -34.1401 355.125ZM125.365 172.098C127.246 172.079 128.776 172.87 130.136 174.559C135.669 181.58 135.15 201.737 130.877 213.422C129.152 220.157 124.623 233.188 119.831 246.849C113.733 264.285 106.941 283.966 104.624 294.289C100.272 316.275 72.8472 332.577 12.9076 348.662C-18.1071 355.146 -44.2526 355.941 -67.0497 351.06C-87.1548 346.78 -105.783 337.828 -125.723 322.887C-143.018 312.847 -153.103 298.257 -154.978 280.721C-157.154 259.784 -147.35 236.67 -129.239 220.371C-109.154 204.589 -57.2721 206.944 -19.3697 208.631C-4.0485 209.287 9.21378 209.962 17.6262 209.252C33.108 207.936 55.9405 198.217 78.0597 188.775C96.522 180.891 114.004 173.463 124.827 172.014C124.828 172.103 125.096 172.1 125.365 172.098Z" fill="#FFD300" fill-opacity="0.1"/>
</svg>
