<svg width="1280" height="610" viewBox="0 0 1280 610" fill="none" xmlns="http://www.w3.org/2000/svg">
<g clip-path="url(#clip0_87_18)">
<path d="M-8 392.433L23.1033 400.872C54.2067 409.412 116.413 426.288 178.331 429.033C240.393 431.778 302.021 420.188 364.083 420.188C426 420.188 488.207 431.778 550.124 431.88C612.186 432.083 673.814 420.9 735.876 421.713C797.793 422.628 860 435.438 921.917 436.353C983.979 437.167 1045.61 425.983 1107.67 418.867C1169.59 411.75 1231.79 408.7 1262.9 407.175L1294 405.65V611.017H1262.9C1231.79 611.017 1169.59 611.017 1107.67 611.017C1045.61 611.017 983.979 611.017 921.917 611.017C860 611.017 797.793 611.017 735.876 611.017C673.814 611.017 612.186 611.017 550.124 611.017C488.207 611.017 426 611.017 364.083 611.017C302.021 611.017 240.393 611.017 178.331 611.017C116.413 611.017 54.2067 611.017 23.1033 611.017H-8V392.433Z" fill="black"/>
<path d="M-8 416.833L23.1033 425.17C54.2067 433.405 116.413 450.078 178.331 456.788C240.393 463.6 302.021 460.55 364.083 460.245C426 459.838 488.207 462.278 550.124 459.33C612.186 456.483 673.814 448.35 735.876 444.792C797.793 441.233 860 442.25 921.917 438.692C983.979 435.133 1045.61 427 1107.67 430.863C1169.59 434.828 1231.79 450.688 1262.9 458.72L1294 466.65V611.017H1262.9C1231.79 611.017 1169.59 611.017 1107.67 611.017C1045.61 611.017 983.979 611.017 921.917 611.017C860 611.017 797.793 611.017 735.876 611.017C673.814 611.017 612.186 611.017 550.124 611.017C488.207 611.017 426 611.017 364.083 611.017C302.021 611.017 240.393 611.017 178.331 611.017C116.413 611.017 54.2067 611.017 23.1033 611.017H-8V416.833Z" fill="#473100"/>
<path d="M-8 509.35L23.1033 505.487C54.2067 501.522 116.413 493.795 178.331 489.22C240.393 484.645 302.021 483.222 364.083 485.967C426 488.712 488.207 495.422 550.124 500.403C612.186 505.283 673.814 508.333 735.876 509.045C797.793 509.655 860 508.028 921.917 497.455C983.979 486.983 1045.61 467.667 1107.67 466.955C1169.59 466.345 1231.79 484.238 1262.9 493.287L1294 502.233V611.017H1262.9C1231.79 611.017 1169.59 611.017 1107.67 611.017C1045.61 611.017 983.979 611.017 921.917 611.017C860 611.017 797.793 611.017 735.876 611.017C673.814 611.017 612.186 611.017 550.124 611.017C488.207 611.017 426 611.017 364.083 611.017C302.021 611.017 240.393 611.017 178.331 611.017C116.413 611.017 54.2067 611.017 23.1033 611.017H-8V509.35Z" fill="#7E6300"/>
<path d="M-8 497.15L23.1033 506.097C54.2067 515.145 116.413 533.038 178.331 542.087C240.393 551.033 302.021 551.033 364.083 547.475C426 543.917 488.207 536.8 550.124 527.447C612.186 518.195 673.814 506.605 735.876 504.572C797.793 502.538 860 510.062 921.917 511.383C983.979 512.705 1045.61 508.028 1107.67 510.875C1169.59 513.722 1231.79 524.295 1262.9 529.48L1294 534.767V611.017H1262.9C1231.79 611.017 1169.59 611.017 1107.67 611.017C1045.61 611.017 983.979 611.017 921.917 611.017C860 611.017 797.793 611.017 735.876 611.017C673.814 611.017 612.186 611.017 550.124 611.017C488.207 611.017 426 611.017 364.083 611.017C302.021 611.017 240.393 611.017 178.331 611.017C116.413 611.017 54.2067 611.017 23.1033 611.017H-8V497.15Z" fill="#BD9900"/>
<path d="M-8 572.383L23.1033 570.553C54.2067 568.622 116.413 564.962 178.331 560.488C240.393 556.117 302.021 551.033 364.083 552.762C426 554.388 488.207 562.928 550.124 567.808C612.186 572.688 673.814 574.112 735.876 570.147C797.793 566.283 860 557.133 921.917 558.353C983.979 559.472 1045.61 571.062 1107.67 568.825C1169.59 566.588 1231.79 550.728 1262.9 542.697L1294 534.767V611.017H1262.9C1231.79 611.017 1169.59 611.017 1107.67 611.017C1045.61 611.017 983.979 611.017 921.917 611.017C860 611.017 797.793 611.017 735.876 611.017C673.814 611.017 612.186 611.017 550.124 611.017C488.207 611.017 426 611.017 364.083 611.017C302.021 611.017 240.393 611.017 178.331 611.017C116.413 611.017 54.2067 611.017 23.1033 611.017H-8V572.383Z" fill="#FFD300"/>
</g>
<defs>
<clipPath id="clip0_87_18">
<rect width="1302" height="610" fill="white" transform="translate(-8)"/>
</clipPath>
</defs>
</svg>
